<svg width="390" height="74" viewBox="0 0 390 74" fill="none" xmlns="http://www.w3.org/2000/svg">
<g clip-path="url(#clip0_0_67)">
<path d="M129.865 12.4622H122.003V29.9348H119.693V10.3293H129.865V12.4622ZM151.576 29.9348H149.033L146.955 24.4387H138.642L136.687 29.9348H134.13L141.65 10.3293H144.029L151.576 29.9348ZM146.203 22.3743L143.126 14.0208C143.026 13.7473 142.926 13.3098 142.826 12.7083H142.771C142.68 13.2642 142.575 13.7017 142.457 14.0208L139.408 22.3743H146.203ZM171.646 29.9348H169.349V12.4075H163.908C163.279 17.3476 162.782 20.8385 162.417 22.8801C162.053 24.9218 161.684 26.4257 161.31 27.3918C160.936 28.358 160.431 29.078 159.792 29.552C159.154 30.0168 158.389 30.2493 157.496 30.2493C156.776 30.2493 156.151 30.1536 155.623 29.9622V27.802C156.087 28.0663 156.602 28.1985 157.167 28.1985C157.733 28.1985 158.261 27.8612 158.753 27.1868C159.255 26.5123 159.761 24.7577 160.271 21.9231C160.791 19.0885 161.365 15.2239 161.994 10.3293H171.646V29.9348ZM195.49 29.9348H192.947L190.869 24.4387H182.556L180.601 29.9348H178.044L185.564 10.3293H187.943L195.49 29.9348ZM190.117 22.3743L187.041 14.0208C186.94 13.7473 186.84 13.3098 186.74 12.7083H186.685C186.594 13.2642 186.489 13.7017 186.371 14.0208L183.322 22.3743H190.117ZM215.533 29.9348H212.333L204.759 20.9661C204.477 20.6288 204.304 20.401 204.24 20.2825H204.185V29.9348H201.888V10.3293H204.185V19.5442H204.24C204.367 19.3437 204.541 19.1204 204.759 18.8743L212.087 10.3293H214.945L206.537 19.7356L215.533 29.9348ZM233.224 12.4075H227.564V29.9348H225.267V12.4075H219.621V10.3293H233.224V12.4075ZM255.619 29.9348H253.322V15.7708C253.322 14.4947 253.367 13.5969 253.458 13.0774H253.376C253.203 13.524 252.994 13.9342 252.748 14.3079L242.658 29.9348H239.814V10.3293H242.111V24.1379C242.111 25.6145 242.074 26.5761 242.001 27.0227H242.056C242.257 26.6217 242.512 26.1842 242.822 25.7102L252.666 10.3293H255.619V29.9348ZM277.48 29.9348H275.183V21.1165C273.096 22.2193 271.154 22.7708 269.359 22.7708C267.645 22.7708 266.319 22.3287 265.38 21.4446C264.451 20.5514 263.986 19.3027 263.986 17.6985V10.3293H266.283V17.5891C266.283 19.6946 267.404 20.7473 269.646 20.7473C271.268 20.7473 273.114 20.246 275.183 19.2434V10.3293H277.48V29.9348ZM296.689 29.9348H286.298V10.3293H296.251V12.4075H288.595V18.929H295.677V20.9934H288.595V27.8567H296.689V29.9348ZM317.306 29.1145C315.857 29.8801 314.052 30.2629 311.892 30.2629C309.103 30.2629 306.87 29.3652 305.193 27.5696C303.516 25.774 302.677 23.4179 302.677 20.5012C302.677 17.3658 303.621 14.8319 305.507 12.8997C307.394 10.9674 309.787 10.0012 312.685 10.0012C314.544 10.0012 316.085 10.2701 317.306 10.8079V13.2551C315.903 12.4713 314.353 12.0793 312.658 12.0793C310.406 12.0793 308.579 12.8313 307.175 14.3352C305.781 15.8391 305.083 17.8489 305.083 20.3645C305.083 22.7525 305.735 24.6575 307.039 26.0793C308.351 27.4921 310.069 28.1985 312.193 28.1985C314.162 28.1985 315.866 27.761 317.306 26.886V29.1145ZM338.443 29.9348H335.244L327.669 20.9661C327.387 20.6288 327.214 20.401 327.15 20.2825H327.095V29.9348H324.798V10.3293H327.095V19.5442H327.15C327.278 19.3437 327.451 19.1204 327.669 18.8743L334.998 10.3293H337.855L329.447 19.7356L338.443 29.9348ZM360.345 29.9348H358.048V15.7708C358.048 14.4947 358.094 13.5969 358.185 13.0774H358.103C357.93 13.524 357.72 13.9342 357.474 14.3079L347.384 29.9348H344.541V10.3293H346.837V24.1379C346.837 25.6145 346.801 26.5761 346.728 27.0227H346.783C346.983 26.6217 347.238 26.1842 347.548 25.7102L357.392 10.3293H360.345V29.9348ZM384.818 29.9348H382.521V15.7708C382.521 14.4947 382.567 13.5969 382.658 13.0774H382.576C382.403 13.524 382.193 13.9342 381.947 14.3079L371.857 29.9348H369.013V10.3293H371.31V24.1379C371.31 25.6145 371.274 26.5761 371.201 27.0227H371.255C371.456 26.6217 371.711 26.1842 372.021 25.7102L381.865 10.3293H384.818V29.9348ZM381.919 4.36841C381.783 5.65356 381.263 6.66984 380.361 7.41724C379.468 8.15552 378.347 8.52466 376.998 8.52466C375.612 8.52466 374.482 8.15552 373.607 7.41724C372.741 6.66984 372.267 5.65356 372.185 4.36841H374.4C374.528 6.08195 375.403 6.93872 377.025 6.93872C377.754 6.93872 378.356 6.71541 378.83 6.2688C379.304 5.81307 379.595 5.17961 379.705 4.36841H381.919ZM119.693 66.9348V47.3293H125.271C126.966 47.3293 128.311 47.7441 129.304 48.5735C130.298 49.4029 130.794 50.483 130.794 51.8137C130.794 52.9257 130.494 53.8918 129.892 54.7122C129.291 55.5325 128.461 56.1158 127.404 56.4622V56.5168C128.725 56.6718 129.783 57.1731 130.576 58.0208C131.369 58.8593 131.765 59.953 131.765 61.302C131.765 62.9791 131.164 64.3372 129.96 65.3762C128.757 66.4153 127.24 66.9348 125.408 66.9348H119.693ZM121.99 49.4075V55.7375H124.341C125.599 55.7375 126.588 55.4368 127.308 54.8352C128.028 54.2245 128.388 53.3678 128.388 52.2649C128.388 50.3599 127.135 49.4075 124.628 49.4075H121.99ZM121.99 57.802V64.8567H125.107C126.456 64.8567 127.5 64.5377 128.238 63.8997C128.985 63.2616 129.359 62.3866 129.359 61.2747C129.359 58.9596 127.782 57.802 124.628 57.802H121.99ZM149.634 66.9348H139.244V47.3293H149.197V49.4075H141.541V55.929H148.623V57.9934H141.541V64.8567H149.634V66.9348ZM170.251 66.1145C168.802 66.8801 166.998 67.2629 164.837 67.2629C162.048 67.2629 159.815 66.3652 158.138 64.5696C156.461 62.774 155.623 60.4179 155.623 57.5012C155.623 54.3658 156.566 51.8319 158.453 49.8997C160.339 47.9674 162.732 47.0012 165.63 47.0012C167.49 47.0012 169.03 47.2701 170.251 47.8079V50.2551C168.848 49.4713 167.298 49.0793 165.603 49.0793C163.352 49.0793 161.524 49.8313 160.121 51.3352C158.726 52.8391 158.029 54.8489 158.029 57.3645C158.029 59.7525 158.681 61.6575 159.984 63.0793C161.296 64.4921 163.014 65.1985 165.138 65.1985C167.107 65.1985 168.811 64.761 170.251 63.886V66.1145ZM189.337 49.4075H183.677V66.9348H181.38V49.4075H175.734V47.3293H189.337V49.4075ZM210.666 66.9348H208.369V57.9934H198.224V66.9348H195.927V47.3293H198.224V55.929H208.369V47.3293H210.666V66.9348ZM235.111 66.9348H232.814V52.7708C232.814 51.4947 232.86 50.5969 232.951 50.0774H232.869C232.695 50.524 232.486 50.9342 232.24 51.3079L222.15 66.9348H219.306V47.3293H221.603V61.1379C221.603 62.6145 221.567 63.5761 221.494 64.0227H221.548C221.749 63.6217 222.004 63.1842 222.314 62.7102L232.158 47.3293H235.111V66.9348ZM257.423 66.9348H254.224L246.65 57.9661C246.367 57.6288 246.194 57.401 246.13 57.2825H246.076V66.9348H243.779V47.3293H246.076V56.5442H246.13C246.258 56.3437 246.431 56.1204 246.65 55.8743L253.978 47.3293H256.835L248.427 56.7356L257.423 66.9348Z" fill="#2C145E"/>
<g clip-path="url(#clip1_0_67)">
<path fill-rule="evenodd" clip-rule="evenodd" d="M67.1674 36.5661C67.6422 36.1204 67.673 35.3705 67.2332 34.8895C66.7928 34.407 66.0529 34.3777 65.578 34.8234C65.1021 35.2675 65.073 36.019 65.5129 36.4999C65.9514 36.9809 66.6931 37.0103 67.1674 36.5661ZM7.13099 39.3694C7.13099 39.3694 -7.57938 51.8657 24.7444 54.5665C24.7444 54.5665 -16.0618 59.2843 7.13099 39.3694ZM14.6884 41.427C13.7868 38.2368 14.9744 35.3175 15.6798 33.9747C15.6305 34.1188 15.584 34.263 15.539 34.4056C15.597 34.285 15.6537 34.1733 15.7073 34.0703C15.8961 33.7115 16.0499 33.4659 16.1211 33.357C16.1269 33.304 16.1327 33.2497 16.1384 33.1967C17.9937 16.7268 31.7977 3.93481 48.5502 3.93481C57.122 3.93481 64.9205 7.28164 70.7416 12.7581C105.942 7.66801 88.9212 32.0143 88.6536 32.3937C98.365 13.8846 79.6505 18.4843 76.2141 19.4589C79.2892 24.4284 81.0955 30.2832 81.173 36.5616C81.175 36.6851 81.1761 36.8101 81.1761 36.9352C81.1761 37.0618 81.175 37.1882 81.173 37.3131C81.0482 50.6069 73.1762 62.0209 61.911 67.1506L61.9098 67.1518C60.9921 67.5693 60.0504 67.9445 59.089 68.2772C59.0718 68.2828 59.0558 68.289 59.0386 68.2934C58.4689 68.4449 57.9061 68.5875 57.347 68.7184C55.11 69.2474 52.9615 69.6151 50.9016 69.8494C50.1266 69.9066 49.3424 69.9347 48.5514 69.9347C45.9429 69.9347 43.4051 69.6245 40.9737 69.0374C38.5422 68.4523 36.2167 67.5905 34.0289 66.4869C34.0289 66.4869 34.0289 66.4857 34.0275 66.4857C33.5571 66.2489 33.0926 65.999 32.6338 65.7386C28.1975 63.8398 16.4593 61.1529 15.558 60.9473C19.4236 61.7753 23.3911 61.7972 26.7982 61.5131C26.7924 61.5075 26.7851 61.5019 26.7794 61.4957C27.1074 61.475 27.437 61.4501 27.7679 61.4222C31.3855 61.0514 34.2497 60.3709 35.4805 60.0456C44.2108 57.6896 51.189 53.1892 58.8381 44.7251L59.3153 44.2783L59.4925 44.4727L59.2225 49.0348L63.0464 45.4537L63.7999 41.746C64.7262 41.1902 65.6974 40.4575 66.6366 39.5781C68.5035 37.8295 69.6444 36.144 70.3672 34.3983C70.8204 33.3041 71.524 31.7495 71.0916 31.276C70.6636 30.8068 69.0459 31.3863 67.9505 31.7481C66.1704 32.3334 64.45 33.3644 62.5716 35.1233C61.6748 35.9631 60.9065 36.844 60.3 37.7L56.4195 38.1912L52.5955 41.7709L57.1059 41.8576L57.2831 42.052L56.8058 42.4987C56.8058 42.4987 26.0129 53.4597 17.0401 45.4773C17.0284 45.4667 17.0183 45.458 17.0067 45.4462H17.0053C16.0936 44.4797 15.468 43.4902 15.06 42.5119C15.0571 42.5076 15.0556 42.505 15.0556 42.5019C14.9249 42.1904 14.8176 41.88 14.7291 41.5722C14.7145 41.5236 14.7 41.4755 14.6884 41.427H14.6884ZM68.1983 18.2602C67.1693 18.2602 67.1705 16.6423 68.1983 16.6423C69.2273 16.6423 69.2248 18.2602 68.1983 18.2602ZM63.9395 13.5544C62.5371 13.5544 62.5384 11.3483 63.9395 11.3483C65.3432 11.3483 65.3412 13.5544 63.9395 13.5544ZM63.3583 25.6139C62.3292 25.6139 62.3323 23.9966 63.3583 23.9966C64.3879 23.9966 64.386 25.6139 63.3583 25.6139ZM68.1011 13.2597C68.5687 13.2597 68.5687 13.9958 68.1011 13.9958C67.6337 13.9958 67.6337 13.2597 68.1011 13.2597ZM60.7455 9.68149C60.2779 9.68149 60.2798 8.94646 60.7455 8.94646C61.2147 8.94646 61.2129 9.68149 60.7455 9.68149ZM56.681 19.7801C56.2136 19.7801 56.2148 19.044 56.681 19.044C57.1497 19.044 57.1486 19.7801 56.681 19.7801ZM55.3265 12.4258C54.8591 12.4258 54.8591 11.6908 55.3265 11.6908C55.794 11.6908 55.794 12.4258 55.3265 12.4258ZM53.9722 6.86269C53.223 6.86269 53.2242 5.68623 53.9722 5.68623C54.7194 5.68623 54.7182 6.86269 53.9722 6.86269ZM48.4556 9.04332C47.4264 9.04332 47.4277 7.42542 48.4556 7.42542C49.4852 7.42542 49.4821 9.04332 48.4556 9.04332ZM41.0025 18.1134C40.5352 18.1134 40.5369 17.3783 41.0025 17.3783C41.4718 17.3783 41.4701 18.1134 41.0025 18.1134ZM35.5837 8.40719C35.1163 8.40719 35.1163 7.6712 35.5837 7.6712C36.0512 7.6712 36.0512 8.40719 35.5837 8.40719Z" fill="url(#paint0_linear_0_67)"/>
</g>
</g>
<defs>
<linearGradient id="paint0_linear_0_67" x1="19.0639" y1="46.4573" x2="96.0934" y2="29.3826" gradientUnits="userSpaceOnUse">
<stop stop-color="#ED1C24"/>
<stop offset="0.4" stop-color="#841844"/>
<stop offset="1" stop-color="#1B1464"/>
</linearGradient>
<clipPath id="clip0_0_67">
<rect width="390" height="74" fill="white"/>
</clipPath>
<clipPath id="clip1_0_67">
<rect width="93" height="66" fill="white" transform="translate(0 3.93481)"/>
</clipPath>
</defs>
</svg>
